<?xml version="1.0" encoding="UTF-8" standalone="no"?>
<!-- Created with Inkscape (http://www.inkscape.org/) -->

<svg
   width="264.58334mm"
   height="105.83334mm"
   viewBox="0 0 264.58334 105.83334"
   version="1.1"
   id="svg8"
   inkscape:version="1.1.1 (3bf5ae0d25, 2021-09-20)"
   sodipodi:docname="better-software-better-research.svg"
   inkscape:export-filename="better-software-better-research.png"
   inkscape:export-xdpi="95.999992"
   inkscape:export-ydpi="95.999992"
   xmlns:inkscape="http://www.inkscape.org/namespaces/inkscape"
   xmlns:sodipodi="http://sodipodi.sourceforge.net/DTD/sodipodi-0.dtd"
   xmlns="http://www.w3.org/2000/svg"
   xmlns:svg="http://www.w3.org/2000/svg"
   xmlns:rdf="http://www.w3.org/1999/02/22-rdf-syntax-ns#"
   xmlns:cc="http://creativecommons.org/ns#"
   xmlns:dc="http://purl.org/dc/elements/1.1/">
  <defs
     id="defs2" />
  <sodipodi:namedview
     id="base"
     pagecolor="#ffffff"
     bordercolor="#666666"
     borderopacity="1.0"
     inkscape:pageopacity="0.0"
     inkscape:pageshadow="2"
     inkscape:zoom="0.29196583"
     inkscape:cx="1222.7458"
     inkscape:cy="92.476575"
     inkscape:document-units="mm"
     inkscape:current-layer="layer1"
     showgrid="false"
     fit-margin-top="0"
     fit-margin-left="0"
     fit-margin-right="0"
     fit-margin-bottom="0"
     inkscape:window-width="1600"
     inkscape:window-height="865"
     inkscape:window-x="0"
     inkscape:window-y="21"
     inkscape:window-maximized="1"
     inkscape:pagecheckerboard="0" />
  <metadata
     id="metadata5">
    <rdf:RDF>
      <cc:Work
         rdf:about="">
        <dc:format>image/svg+xml</dc:format>
        <dc:type
           rdf:resource="http://purl.org/dc/dcmitype/StillImage" />
        <dc:title />
      </cc:Work>
    </rdf:RDF>
  </metadata>
  <g
     inkscape:label="Layer 1"
     inkscape:groupmode="layer"
     id="layer1"
     transform="translate(342.75958,-54.957699)">
    <rect
       style="fill:#000000;fill-opacity:1;stroke-width:0.15257366"
       id="rect34"
       width="264.58334"
       height="105.83334"
       x="-342.75958"
       y="54.957699" />
    <g
       id="g90"
       transform="matrix(0.66999982,0,0,0.66999982,-70.791587,58.173403)">
      <g
         transform="translate(-1.1851273)"
         id="g66">
        <g
           aria-label="BETTER  "
           style="font-style:normal;font-variant:normal;font-weight:bold;font-stretch:normal;font-size:37.99801254px;line-height:1.25;font-family:Oswald;-inkscape-font-specification:'Oswald Bold';font-variant-ligatures:normal;font-variant-caps:normal;font-variant-numeric:normal;font-feature-settings:normal;text-align:start;letter-spacing:0px;word-spacing:0px;writing-mode:lr-tb;text-anchor:start;fill:#ffffff;fill-opacity:1;stroke:none;stroke-width:0.94995034"
           id="text12">
          <path
             d="m -262.42663,12.052836 h 8.01758 q 3.00184,0 5.09173,0.645966 2.12789,0.607969 3.41982,2.393875 1.29194,1.785907 1.29194,5.015738 0,2.735857 -1.17794,4.255777 -1.17794,1.519921 -3.34383,1.937899 2.65986,0.341982 4.06579,2.241883 1.40593,1.8999 1.40593,5.167729 0,9.119523 -9.30952,9.119523 h -9.4615 z m 8.13157,12.311356 q 2.16589,0 2.92585,-0.987948 0.79796,-0.987948 0.79796,-3.077839 0,-1.823905 -0.98795,-2.735857 -0.98795,-0.94995 -2.88785,-0.94995 h -1.17794 v 7.751594 z m 0.114,13.717283 q 2.16588,0 3.03984,-1.063945 0.91195,-1.101942 0.91195,-3.419821 0,-2.621863 -0.91195,-3.685807 -0.87396,-1.063944 -3.07784,-1.063944 h -1.40593 v 9.233517 z"
             style="font-style:normal;font-variant:normal;font-weight:bold;font-stretch:normal;font-size:37.99801254px;font-family:Oswald;-inkscape-font-specification:'Oswald Bold';font-variant-ligatures:normal;font-variant-caps:normal;font-variant-numeric:normal;font-feature-settings:normal;text-align:start;writing-mode:lr-tb;text-anchor:start;fill:#ffffff;stroke-width:0.94995034"
             id="path168"
             inkscape:connector-curvature="0" />
          <path
             d="m -240.08383,12.052836 h 13.83128 v 4.635758 h -7.02963 v 7.6376 h 5.35772 v 4.711754 h -5.35772 v 9.195519 h 7.10563 v 4.597759 h -13.90728 z"
             style="font-style:normal;font-variant:normal;font-weight:bold;font-stretch:normal;font-size:37.99801254px;font-family:Oswald;-inkscape-font-specification:'Oswald Bold';font-variant-ligatures:normal;font-variant-caps:normal;font-variant-numeric:normal;font-feature-settings:normal;text-align:start;writing-mode:lr-tb;text-anchor:start;fill:#ffffff;stroke-width:0.94995034"
             id="path170"
             inkscape:connector-curvature="0" />
          <path
             d="m -220.32491,17.106572 h -4.63576 v -5.053736 h 16.07316 v 5.053736 h -4.59776 v 25.724654 h -6.83964 z"
             style="font-style:normal;font-variant:normal;font-weight:bold;font-stretch:normal;font-size:37.99801254px;font-family:Oswald;-inkscape-font-specification:'Oswald Bold';font-variant-ligatures:normal;font-variant-caps:normal;font-variant-numeric:normal;font-feature-settings:normal;text-align:start;writing-mode:lr-tb;text-anchor:start;fill:#ffffff;stroke-width:0.94995034"
             id="path172"
             inkscape:connector-curvature="0" />
          <path
             d="m -203.41581,17.106572 h -4.63576 v -5.053736 h 16.07316 v 5.053736 h -4.59776 v 25.724654 h -6.83964 z"
             style="font-style:normal;font-variant:normal;font-weight:bold;font-stretch:normal;font-size:37.99801254px;font-family:Oswald;-inkscape-font-specification:'Oswald Bold';font-variant-ligatures:normal;font-variant-caps:normal;font-variant-numeric:normal;font-feature-settings:normal;text-align:start;writing-mode:lr-tb;text-anchor:start;fill:#ffffff;stroke-width:0.94995034"
             id="path174"
             inkscape:connector-curvature="0" />
          <path
             d="m -189.28056,12.052836 h 13.83128 v 4.635758 h -7.02964 v 7.6376 h 5.35772 v 4.711754 h -5.35772 v 9.195519 h 7.10563 v 4.597759 h -13.90727 z"
             style="font-style:normal;font-variant:normal;font-weight:bold;font-stretch:normal;font-size:37.99801254px;font-family:Oswald;-inkscape-font-specification:'Oswald Bold';font-variant-ligatures:normal;font-variant-caps:normal;font-variant-numeric:normal;font-feature-settings:normal;text-align:start;writing-mode:lr-tb;text-anchor:start;fill:#ffffff;stroke-width:0.94995034"
             id="path176"
             inkscape:connector-curvature="0" />
          <path
             d="m -172.29551,12.052836 h 8.47356 q 5.05374,0 7.6376,1.785907 2.58387,1.785906 2.58387,6.345668 0,3.077839 -0.79796,4.901743 -0.79796,1.823905 -2.96385,2.849851 l 4.21778,14.895221 h -7.02963 l -3.38182,-13.793278 h -1.9379 v 13.793278 h -6.80165 z m 8.70155,13.071317 q 2.05189,0 2.84985,-1.063945 0.83596,-1.101942 0.83596,-3.267829 0,-2.089891 -0.75996,-3.115837 -0.75996,-1.063944 -2.62187,-1.063944 h -2.20388 v 8.511555 z"
             style="font-style:normal;font-variant:normal;font-weight:bold;font-stretch:normal;font-size:37.99801254px;font-family:Oswald;-inkscape-font-specification:'Oswald Bold';font-variant-ligatures:normal;font-variant-caps:normal;font-variant-numeric:normal;font-feature-settings:normal;text-align:start;writing-mode:lr-tb;text-anchor:start;fill:#ffffff;stroke-width:0.94995034"
             id="path178"
             inkscape:connector-curvature="0" />
        </g>
        <g
           aria-label="SOFTWARE"
           style="font-style:normal;font-variant:normal;font-weight:bold;font-stretch:normal;font-size:26.08168221px;line-height:1.25;font-family:Oswald;-inkscape-font-specification:'Oswald Bold';font-variant-ligatures:normal;font-variant-caps:normal;font-variant-numeric:normal;font-feature-settings:normal;text-align:start;letter-spacing:0px;word-spacing:0px;writing-mode:lr-tb;text-anchor:start;fill:#ffffff;fill-opacity:1;stroke:none;stroke-width:0.65204203"
           id="text24">
          <path
             d="m -255.35244,69.027198 q -3.02547,0 -4.51213,-1.590982 -1.46057,-1.617065 -1.5649,-5.11201 l 3.9905,-0.599879 q 0.0261,2.00829 0.46947,2.895067 0.46947,0.860696 1.38233,0.860696 1.17367,0 1.17367,-1.53882 0,-1.225839 -0.5738,-2.112616 -0.54771,-0.886777 -1.74747,-1.903963 l -1.82572,-1.590982 q -1.35624,-1.147594 -2.11261,-2.425597 -0.73029,-1.304084 -0.73029,-3.077638 0,-2.660332 1.5649,-4.094824 1.59098,-1.434493 4.35564,-1.434493 2.9994,0 4.06874,1.747473 1.09543,1.747472 1.17368,4.251314 l -4.01658,0.495552 q -0.0522,-1.643146 -0.31298,-2.347351 -0.23473,-0.730288 -1.06935,-0.730288 -0.59988,0 -0.93894,0.521634 -0.31298,0.495552 -0.31298,1.121512 0,1.069349 0.46947,1.799636 0.49555,0.730288 1.5649,1.669228 l 1.74747,1.538819 q 1.56491,1.330166 2.4256,2.816822 0.8607,1.486656 0.8607,3.521027 0,1.486656 -0.70421,2.712495 -0.67812,1.199757 -1.93004,1.903963 -1.25192,0.704205 -2.89507,0.704205 z"
             style="font-style:normal;font-variant:normal;font-weight:bold;font-stretch:normal;font-size:26.08168221px;font-family:Oswald;-inkscape-font-specification:'Oswald Bold';font-variant-ligatures:normal;font-variant-caps:normal;font-variant-numeric:normal;font-feature-settings:normal;text-align:start;writing-mode:lr-tb;text-anchor:start;fill:#ffffff;stroke-width:0.65204203"
             id="path181"
             inkscape:connector-curvature="0" />
          <path
             d="m -241.50307,69.027198 q -3.4167,0 -4.87727,-1.747472 -1.46058,-1.773555 -1.46058,-5.216337 v -7.850586 q 0,-3.442782 1.46058,-5.164173 1.46057,-1.747473 4.87727,-1.747473 3.44278,0 4.90336,1.747473 1.48665,1.747472 1.48665,5.164173 v 7.850586 q 0,3.442782 -1.48665,5.216337 -1.46058,1.747472 -4.90336,1.747472 z m 0,-3.312373 q 0.99111,0 1.30409,-0.652042 0.31298,-0.678124 0.31298,-1.825718 V 53.065209 q 0,-1.173676 -0.31298,-1.825718 -0.31298,-0.652042 -1.30409,-0.652042 -0.93894,0 -1.25192,0.678124 -0.31298,0.652042 -0.31298,1.799636 v 10.171856 q 0,1.147594 0.2869,1.825718 0.2869,0.652042 1.278,0.652042 z"
             style="font-style:normal;font-variant:normal;font-weight:bold;font-stretch:normal;font-size:26.08168221px;font-family:Oswald;-inkscape-font-specification:'Oswald Bold';font-variant-ligatures:normal;font-variant-caps:normal;font-variant-numeric:normal;font-feature-settings:normal;text-align:start;writing-mode:lr-tb;text-anchor:start;fill:#ffffff;stroke-width:0.65204203"
             id="path183"
             inkscape:connector-curvature="0" />
          <path
             d="m -232.27019,47.588056 h 9.12859 v 3.155883 h -4.45997 v 5.320663 h 3.88617 v 3.260211 h -3.88617 v 9.389405 h -4.66862 z"
             style="font-style:normal;font-variant:normal;font-weight:bold;font-stretch:normal;font-size:26.08168221px;font-family:Oswald;-inkscape-font-specification:'Oswald Bold';font-variant-ligatures:normal;font-variant-caps:normal;font-variant-numeric:normal;font-feature-settings:normal;text-align:start;writing-mode:lr-tb;text-anchor:start;fill:#ffffff;stroke-width:0.65204203"
             id="path185"
             inkscape:connector-curvature="0" />
          <path
             d="m -219.04683,51.056919 h -3.18196 v -3.468863 h 11.03255 v 3.468863 h -3.15588 v 17.657299 h -4.69471 z"
             style="font-style:normal;font-variant:normal;font-weight:bold;font-stretch:normal;font-size:26.08168221px;font-family:Oswald;-inkscape-font-specification:'Oswald Bold';font-variant-ligatures:normal;font-variant-caps:normal;font-variant-numeric:normal;font-feature-settings:normal;text-align:start;writing-mode:lr-tb;text-anchor:start;fill:#ffffff;stroke-width:0.65204203"
             id="path187"
             inkscape:connector-curvature="0" />
          <path
             d="m -210.20515,47.588056 h 3.96442 l 1.25192,12.310554 1.59098,-12.284473 h 3.10372 l 1.66923,12.206228 1.278,-12.232309 h 3.91226 l -2.52993,21.126162 h -4.06874 l -1.79964,-12.753942 -1.69531,12.753942 h -4.1209 z"
             style="font-style:normal;font-variant:normal;font-weight:bold;font-stretch:normal;font-size:26.08168221px;font-family:Oswald;-inkscape-font-specification:'Oswald Bold';font-variant-ligatures:normal;font-variant-caps:normal;font-variant-numeric:normal;font-feature-settings:normal;text-align:start;writing-mode:lr-tb;text-anchor:start;fill:#ffffff;stroke-width:0.65204203"
             id="path189"
             inkscape:connector-curvature="0" />
          <path
             d="m -188.74,47.588056 h 5.32066 l 3.93834,21.126162 h -4.30348 l -0.70421,-4.459968 h -3.10372 l -0.73028,4.459968 h -4.40781 z m 3.80792,13.875454 -1.12151,-8.241811 -1.12151,8.241811 z"
             style="font-style:normal;font-variant:normal;font-weight:bold;font-stretch:normal;font-size:26.08168221px;font-family:Oswald;-inkscape-font-specification:'Oswald Bold';font-variant-ligatures:normal;font-variant-caps:normal;font-variant-numeric:normal;font-feature-settings:normal;text-align:start;writing-mode:lr-tb;text-anchor:start;fill:#ffffff;stroke-width:0.65204203"
             id="path191"
             inkscape:connector-curvature="0" />
          <path
             d="m -177.34234,47.588056 h 5.81621 q 3.46887,0 5.24242,1.225839 1.77356,1.225839 1.77356,4.355641 0,2.112616 -0.54772,3.364537 -0.54771,1.25192 -2.03437,1.956126 l 2.89507,10.224019 h -4.82511 l -2.32127,-9.467651 h -1.33017 v 9.467651 h -4.66862 z m 5.9727,8.972098 q 1.40842,0 1.95613,-0.730287 0.5738,-0.756369 0.5738,-2.243025 0,-1.434492 -0.52164,-2.138697 -0.52163,-0.730288 -1.79963,-0.730288 h -1.51274 v 5.842297 z"
             style="font-style:normal;font-variant:normal;font-weight:bold;font-stretch:normal;font-size:26.08168221px;font-family:Oswald;-inkscape-font-specification:'Oswald Bold';font-variant-ligatures:normal;font-variant-caps:normal;font-variant-numeric:normal;font-feature-settings:normal;text-align:start;writing-mode:lr-tb;text-anchor:start;fill:#ffffff;stroke-width:0.65204203"
             id="path193"
             inkscape:connector-curvature="0" />
          <path
             d="m -161.69337,47.588056 h 9.49373 v 3.181965 h -4.82511 v 5.242418 h 3.67752 v 3.234128 h -3.67752 v 6.311768 h 4.87728 v 3.155883 h -9.5459 z"
             style="font-style:normal;font-variant:normal;font-weight:bold;font-stretch:normal;font-size:26.08168221px;font-family:Oswald;-inkscape-font-specification:'Oswald Bold';font-variant-ligatures:normal;font-variant-caps:normal;font-variant-numeric:normal;font-feature-settings:normal;text-align:start;writing-mode:lr-tb;text-anchor:start;fill:#ffffff;stroke-width:0.65204203"
             id="path195"
             inkscape:connector-curvature="0" />
        </g>
      </g>
      <g
         transform="translate(0,-5.2916667)"
         id="g74">
        <g
           aria-label="RESEARCH"
           style="font-style:normal;font-variant:normal;font-weight:bold;font-stretch:normal;font-size:26.01338577px;line-height:1.25;font-family:Oswald;-inkscape-font-specification:'Oswald Bold';letter-spacing:0px;word-spacing:0px;fill:#ffffff;fill-opacity:1;stroke:none;stroke-width:0.65033466"
           id="text32">
          <path
             d="m -262.73244,120.21697 h 5.80098 q 3.45979,0 5.2287,1.22263 1.76891,1.22263 1.76891,4.34423 0,2.10709 -0.54629,3.35573 -0.54628,1.24864 -2.02904,1.951 l 2.88749,10.19725 h -4.81248 l -2.31519,-9.44286 h -1.32668 v 9.44286 h -4.6564 z m 5.95707,8.9486 q 1.40472,0 1.951,-0.72837 0.57229,-0.75439 0.57229,-2.23715 0,-1.43074 -0.52026,-2.1331 -0.52027,-0.72837 -1.79493,-0.72837 h -1.50877 v 5.82699 z"
             style="font-style:normal;font-variant:normal;font-weight:bold;font-stretch:normal;font-family:Oswald;-inkscape-font-specification:'Oswald Bold';fill:#ffffff;stroke-width:0.65033466"
             id="path198"
             inkscape:connector-curvature="0" />
          <path
             d="m -247.12445,120.21697 h 9.46887 v 3.17363 h -4.81247 v 5.22869 h 3.66789 v 3.22566 h -3.66789 v 6.29524 h 4.8645 v 3.14762 h -9.5209 z"
             style="font-style:normal;font-variant:normal;font-weight:bold;font-stretch:normal;font-family:Oswald;-inkscape-font-specification:'Oswald Bold';fill:#ffffff;stroke-width:0.65033466"
             id="path200"
             inkscape:connector-curvature="0" />
          <path
             d="m -229.90362,141.59997 q -3.01756,0 -4.50032,-1.58681 -1.45675,-1.61283 -1.5608,-5.09863 l 3.98005,-0.59831 q 0.026,2.00303 0.46824,2.88749 0.46824,0.85844 1.37871,0.85844 1.1706,0 1.1706,-1.53479 0,-1.22263 -0.5723,-2.10708 -0.54628,-0.88446 -1.74289,-1.89898 l -1.82094,-1.58682 q -1.3527,-1.14459 -2.10708,-2.41924 -0.72838,-1.30067 -0.72838,-3.06958 0,-2.65337 1.5608,-4.0841 1.58682,-1.43074 4.34424,-1.43074 2.99154,0 4.05809,1.7429 1.09256,1.7429 1.1706,4.24018 l -4.00606,0.49425 q -0.052,-1.63884 -0.31216,-2.3412 -0.23412,-0.72837 -1.06655,-0.72837 -0.59831,0 -0.93648,0.52026 -0.31216,0.49426 -0.31216,1.11858 0,1.06655 0.46824,1.79492 0.49425,0.72838 1.5608,1.66486 l 1.7429,1.53479 q 1.5608,1.32668 2.41924,2.80944 0.85844,1.48277 0.85844,3.51181 0,1.48276 -0.70236,2.70539 -0.67634,1.19662 -1.92499,1.89898 -1.24864,0.70236 -2.88748,0.70236 z"
             style="font-style:normal;font-variant:normal;font-weight:bold;font-stretch:normal;font-family:Oswald;-inkscape-font-specification:'Oswald Bold';fill:#ffffff;stroke-width:0.65033466"
             id="path202"
             inkscape:connector-curvature="0" />
          <path
             d="m -222.12562,120.21697 h 9.46887 v 3.17363 h -4.81248 v 5.22869 h 3.66789 v 3.22566 h -3.66789 v 6.29524 h 4.86451 v 3.14762 h -9.5209 z"
             style="font-style:normal;font-variant:normal;font-weight:bold;font-stretch:normal;font-family:Oswald;-inkscape-font-specification:'Oswald Bold';fill:#ffffff;stroke-width:0.65033466"
             id="path204"
             inkscape:connector-curvature="0" />
          <path
             d="m -207.53215,120.21697 h 5.30673 l 3.92802,21.07084 h -4.29221 l -0.70236,-4.44829 h -3.09559 l -0.72838,4.44829 h -4.39626 z m 3.79795,13.83912 -1.11857,-8.22023 -1.11858,8.22023 z"
             style="font-style:normal;font-variant:normal;font-weight:bold;font-stretch:normal;font-family:Oswald;-inkscape-font-specification:'Oswald Bold';fill:#ffffff;stroke-width:0.65033466"
             id="path206"
             inkscape:connector-curvature="0" />
          <path
             d="m -196.16433,120.21697 h 5.80098 q 3.45978,0 5.22869,1.22263 1.76891,1.22263 1.76891,4.34423 0,2.10709 -0.54628,3.35573 -0.54628,1.24864 -2.02904,1.951 l 2.88748,10.19725 h -4.81247 l -2.31519,-9.44286 h -1.32669 v 9.44286 h -4.65639 z m 5.95706,8.9486 q 1.40473,0 1.95101,-0.72837 0.57229,-0.75439 0.57229,-2.23715 0,-1.43074 -0.52027,-2.1331 -0.52026,-0.72837 -1.79492,-0.72837 h -1.50878 v 5.82699 z"
             style="font-style:normal;font-variant:normal;font-weight:bold;font-stretch:normal;font-family:Oswald;-inkscape-font-specification:'Oswald Bold';fill:#ffffff;stroke-width:0.65033466"
             id="path208"
             inkscape:connector-curvature="0" />
          <path
             d="m -174.72938,141.59997 q -3.43377,0 -4.89051,-1.79492 -1.43074,-1.82094 -1.43074,-5.22869 v -7.59591 q 0,-3.48579 1.43074,-5.2547 1.43073,-1.79493 4.89051,-1.79493 3.3037,0 4.68241,1.58682 1.37871,1.58681 1.37871,4.50031 v 1.82094 h -4.55234 v -2.10708 q 0,-1.22263 -0.26014,-1.87297 -0.26013,-0.65033 -1.24864,-0.65033 -0.98851,0 -1.30067,0.70236 -0.31216,0.67635 -0.31216,1.89898 v 9.9111 q 0,1.24864 0.31216,1.92499 0.33818,0.65033 1.30067,0.65033 0.9625,0 1.22263,-0.65033 0.28615,-0.67635 0.28615,-1.92499 v -2.21114 h 4.55234 v 1.82094 q 0,2.96552 -1.37871,4.63038 -1.37871,1.63884 -4.68241,1.63884 z"
             style="font-style:normal;font-variant:normal;font-weight:bold;font-stretch:normal;font-family:Oswald;-inkscape-font-specification:'Oswald Bold';fill:#ffffff;stroke-width:0.65033466"
             id="path210"
             inkscape:connector-curvature="0" />
          <path
             d="m -166.04091,120.21697 h 4.65639 v 8.53239 h 3.25168 v -8.53239 h 4.68241 v 21.07084 h -4.68241 v -9.20874 h -3.25168 v 9.20874 h -4.65639 z"
             style="font-style:normal;font-variant:normal;font-weight:bold;font-stretch:normal;font-family:Oswald;-inkscape-font-specification:'Oswald Bold';fill:#ffffff;stroke-width:0.65033466"
             id="path212"
             inkscape:connector-curvature="0" />
        </g>
        <g
           aria-label="BETTER  "
           style="font-style:normal;font-variant:normal;font-weight:bold;font-stretch:normal;font-size:37.99796677px;line-height:1.25;font-family:Oswald;-inkscape-font-specification:'Oswald Bold';font-variant-ligatures:normal;font-variant-caps:normal;font-variant-numeric:normal;font-feature-settings:normal;text-align:start;letter-spacing:0px;word-spacing:0px;writing-mode:lr-tb;text-anchor:start;fill:#ffffff;fill-opacity:1;stroke:none;stroke-width:0.9499492"
           id="text12-4">
          <path
             d="m -263.49393,84.884184 h 8.01758 q 3.00183,0 5.09172,0.645965 2.12789,0.607967 3.41982,2.393872 1.29193,1.785904 1.29193,5.015731 0,2.735854 -1.17794,4.255773 -1.17793,1.519918 -3.34382,1.937896 2.65986,0.341982 4.06579,2.241879 1.40592,1.8999 1.40592,5.16772 0,9.11952 -9.3095,9.11952 h -9.4615 z m 8.13157,12.311341 q 2.16588,0 2.92584,-0.987947 0.79796,-0.987947 0.79796,-3.077836 0,-1.823902 -0.98795,-2.735853 -0.98794,-0.949949 -2.88784,-0.949949 h -1.17794 v 7.751585 z m 0.11399,13.717265 q 2.16589,0 3.03984,-1.06394 0.91195,-1.10194 0.91195,-3.41982 0,-2.62186 -0.91195,-3.6858 -0.87395,-1.06395 -3.07783,-1.06395 h -1.40593 v 9.23351 z"
             style="font-style:normal;font-variant:normal;font-weight:bold;font-stretch:normal;font-size:37.99796677px;font-family:Oswald;-inkscape-font-specification:'Oswald Bold';font-variant-ligatures:normal;font-variant-caps:normal;font-variant-numeric:normal;font-feature-settings:normal;text-align:start;writing-mode:lr-tb;text-anchor:start;fill:#ffffff;stroke-width:0.9499492"
             id="path215"
             inkscape:connector-curvature="0" />
          <path
             d="m -241.15115,84.884184 h 13.83126 v 4.635751 h -7.02962 v 7.637592 h 5.35771 v 4.711743 h -5.35771 v 9.19551 h 7.10562 v 4.59776 h -13.90726 z"
             style="font-style:normal;font-variant:normal;font-weight:bold;font-stretch:normal;font-size:37.99796677px;font-family:Oswald;-inkscape-font-specification:'Oswald Bold';font-variant-ligatures:normal;font-variant-caps:normal;font-variant-numeric:normal;font-feature-settings:normal;text-align:start;writing-mode:lr-tb;text-anchor:start;fill:#ffffff;stroke-width:0.9499492"
             id="path217"
             inkscape:connector-curvature="0" />
          <path
             d="m -221.39226,89.937913 h -4.63575 v -5.053729 h 16.07314 v 5.053729 h -4.59775 v 25.724627 h -6.83964 z"
             style="font-style:normal;font-variant:normal;font-weight:bold;font-stretch:normal;font-size:37.99796677px;font-family:Oswald;-inkscape-font-specification:'Oswald Bold';font-variant-ligatures:normal;font-variant-caps:normal;font-variant-numeric:normal;font-feature-settings:normal;text-align:start;writing-mode:lr-tb;text-anchor:start;fill:#ffffff;stroke-width:0.9499492"
             id="path219"
             inkscape:connector-curvature="0" />
          <path
             d="m -204.48317,89.937913 h -4.63576 v -5.053729 h 16.07314 v 5.053729 h -4.59775 v 25.724627 h -6.83963 z"
             style="font-style:normal;font-variant:normal;font-weight:bold;font-stretch:normal;font-size:37.99796677px;font-family:Oswald;-inkscape-font-specification:'Oswald Bold';font-variant-ligatures:normal;font-variant-caps:normal;font-variant-numeric:normal;font-feature-settings:normal;text-align:start;writing-mode:lr-tb;text-anchor:start;fill:#ffffff;stroke-width:0.9499492"
             id="path221"
             inkscape:connector-curvature="0" />
          <path
             d="m -190.34794,84.884184 h 13.83126 v 4.635751 h -7.02963 v 7.637592 h 5.35771 v 4.711743 h -5.35771 v 9.19551 h 7.10562 v 4.59776 h -13.90725 z"
             style="font-style:normal;font-variant:normal;font-weight:bold;font-stretch:normal;font-size:37.99796677px;font-family:Oswald;-inkscape-font-specification:'Oswald Bold';font-variant-ligatures:normal;font-variant-caps:normal;font-variant-numeric:normal;font-feature-settings:normal;text-align:start;writing-mode:lr-tb;text-anchor:start;fill:#ffffff;stroke-width:0.9499492"
             id="path223"
             inkscape:connector-curvature="0" />
          <path
             d="m -173.36291,84.884184 h 8.47355 q 5.05373,0 7.63759,1.785904 2.58386,1.785904 2.58386,6.34566 0,3.077836 -0.79795,4.901738 -0.79796,1.823903 -2.96385,2.849844 l 4.21778,14.89521 h -7.02962 l -3.38182,-13.79327 h -1.9379 v 13.79327 h -6.80164 z m 8.70154,13.0713 q 2.05189,0 2.84985,-1.063943 0.83595,-1.101941 0.83595,-3.267825 0,-2.089888 -0.75996,-3.115833 -0.75996,-1.063943 -2.62186,-1.063943 h -2.20388 v 8.511544 z"
             style="font-style:normal;font-variant:normal;font-weight:bold;font-stretch:normal;font-size:37.99796677px;font-family:Oswald;-inkscape-font-specification:'Oswald Bold';font-variant-ligatures:normal;font-variant-caps:normal;font-variant-numeric:normal;font-feature-settings:normal;text-align:start;writing-mode:lr-tb;text-anchor:start;fill:#ffffff;stroke-width:0.9499492"
             id="path225"
             inkscape:connector-curvature="0" />
        </g>
      </g>
    </g>
  </g>
</svg>
